<svg xmlns="http://www.w3.org/2000/svg" width="140" height="130" viewBox="0 0 140 130">
  <g id="ico_04_contents2" transform="translate(-735 -1283)">
    <g id="ic_02" transform="translate(634.829 1230.528)">
      <path id="패스_1087" data-name="패스 1087" d="M225.472,154.233H115.87a3.7,3.7,0,0,1-3.7-3.7V68.169a3.7,3.7,0,0,1,3.7-3.7h109.6a3.7,3.7,0,0,1,3.7,3.7v82.366A3.7,3.7,0,0,1,225.472,154.233ZM115.87,67.161a1.007,1.007,0,0,0-1.009,1.008v82.366a1.007,1.007,0,0,0,1.009,1.008h109.6a1.007,1.007,0,0,0,1.009-1.008V68.17a1.016,1.016,0,0,0-1.009-1.008Z"/>
      <path id="패스_1088" data-name="패스 1088" d="M327.793,437.56H306.25V418.629h21.543Zm-18.85-2.693H325.1V421.322H308.943Z" transform="translate(-146.352 -267.09)"/>
      <path id="패스_1089" data-name="패스 1089" d="M270.43,484.59h39.182v2.693H270.43Z" transform="translate(-119.351 -316.811)"/>
      <path id="패스_1090" data-name="패스 1090" d="M458.23,245.76l1.9-1.9,3.656,3.656-1.9,1.9Z" transform="translate(-260.943 -135.275)"/>
      <path id="패스_1091" data-name="패스 1091" d="M473.281,263.65a4.719,4.719,0,0,1-3.353-1.387l-7.675-7.675a1.414,1.414,0,0,1,0-2.006l4.7-4.7a1.458,1.458,0,0,1,1.023-.417,1.421,1.421,0,0,1,.983.417l7.675,7.675a4.746,4.746,0,0,1-3.353,8.092Zm-8.213-10.058,6.773,6.773a2.039,2.039,0,0,0,2.881,0,2.016,2.016,0,0,0,.592-1.441,2.073,2.073,0,0,0-.592-1.441l-6.773-6.773Z" transform="translate(-263.688 -138.004)" fill="#f8ad1c"/>
      <path id="패스_1092" data-name="패스 1092" d="M351.866,156.756a19.241,19.241,0,0,1-11.445-3.77,20.121,20.121,0,0,1-2.154-1.858,19.071,19.071,0,0,1-3.164-4.174c-.148-.256-.283-.512-.417-.781a21.486,21.486,0,0,1-.983-2.3,19.222,19.222,0,0,1,4.524-19.9l.04-.04a19.225,19.225,0,0,1,31.749,19.941,18.239,18.239,0,0,1-.983,2.3c-.148.3-.283.552-.418.781a18.877,18.877,0,0,1-3.164,4.16A19.219,19.219,0,0,1,353.2,156.7c-.444.027-.889.054-1.333.054Zm-.014-35.774a16.448,16.448,0,0,0-11.7,4.847l-.04.04a16.419,16.419,0,0,0-3.528,5.291,16.642,16.642,0,0,0-.337,11.822,15.834,15.834,0,0,0,.835,1.979c.108.229.229.444.35.66a16.75,16.75,0,0,0,2.72,3.582,16.206,16.206,0,0,0,1.858,1.6,16.633,16.633,0,0,0,21.543-1.6,15.937,15.937,0,0,0,2.72-3.582c.121-.2.229-.418.364-.673a14.99,14.99,0,0,0,.835-1.979,16.657,16.657,0,0,0-3.918-17.167,16.48,16.48,0,0,0-11.7-4.82Z" transform="translate(-166.259 -40.566)"/>
      <path id="패스_1093" data-name="패스 1093" d="M221.865,161.957H178.429V136.482h-4.511A1.415,1.415,0,0,1,172.99,134l.013-.013L200.16,110.63,216.277,124.5l-.377.9a16.642,16.642,0,0,0-.337,11.822,19.83,19.83,0,0,0,.835,1.979c.121.242.243.458.35.66a16.478,16.478,0,0,0,2.733,3.6,16.2,16.2,0,0,0,1.858,1.6l.539.4v16.494Zm-40.743-2.693h38.051V146.783a18.143,18.143,0,0,1-1.616-1.441,19.054,19.054,0,0,1-3.164-4.174c-.135-.229-.269-.485-.418-.781a19.385,19.385,0,0,1-.983-2.3,19.106,19.106,0,0,1-1-8.025,19.914,19.914,0,0,1,1.037-4.793l-12.9-11.095-22.769,19.618h3.757Z" transform="translate(-45.483 -34.794)"/>
      <path id="패스_1094" data-name="패스 1094" d="M267.663,251.494H251.075V231.4a2,2,0,0,1,1.993-1.993h12.589a2,2,0,0,1,1.993,1.993v20.089Zm-13.9-2.693h11.2v-16.7h-11.2Z" transform="translate(-104.743 -124.393)"/>
      <path id="패스_1095" data-name="패스 1095" d="M117.63,356.07h66.636v2.693H117.63Z" transform="translate(-4.115 -219.894)"/>
      <path id="패스_1096" data-name="패스 1096" d="M415.73,356.07h4.941v2.693H415.73Z" transform="translate(-228.896 -219.894)"/>
      <path id="패스_1097" data-name="패스 1097" d="M462.11,356.07h29.609v2.693H462.11Z" transform="translate(-263.895 -219.894)"/>
    </g>
    <rect id="사각형_118" data-name="사각형 118" width="140" height="130" transform="translate(735 1283)" fill="none"/>
  </g>
</svg>
