<svg xmlns="http://www.w3.org/2000/svg" width="140" height="130" viewBox="0 0 140 130">
  <g id="ico_04_contents1" transform="translate(-425 -1253)">
    <rect id="사각형_117" data-name="사각형 117" width="140" height="130" transform="translate(425 1253)" fill="none"/>
    <g id="ic_매입매각자문" transform="translate(323.068 1183.921)">
      <path id="패스_1164" data-name="패스 1164" d="M445.3,329.238h-8.151l-.38-.34a13.812,13.812,0,0,0-3.655-2.3l-6-2.595v-17a2.079,2.079,0,0,1,2.078-2.079h14.02a2.079,2.079,0,0,1,2.078,2.079v22.226Zm-7.132-2.717h4.415v-18.87H429.831v14.577l4.361,1.875a16.331,16.331,0,0,1,3.98,2.418Z" transform="translate(-235.968 -168.714)" fill="#f8ad1c"/>
      <path id="패스_1165" data-name="패스 1165" d="M409.07,230.881H385.988l-.38-.34a13.812,13.812,0,0,0-3.655-2.3l-20.962-9.007V202.515h-1.97l1.522-2.147a25.559,25.559,0,0,0,3.872-8.26l.109-.408,20.514-17.634L415.2,200.014a1.413,1.413,0,0,1,.38,1.576,1.442,1.442,0,0,1-1.345.924h-5.162Zm-22.076-2.717h19.359V199.8h4.429l-25.744-22.144-18.1,15.555a28.149,28.149,0,0,1-3.233,7.309v16.928l19.3,8.287a16.818,16.818,0,0,1,3.98,2.432Z" transform="translate(-184.745 -70.445)"/>
      <path id="패스_1166" data-name="패스 1166" d="M523.559,215.176l-9.007-7.757v-8.192h8.994l.014,1.359Zm-6.29-9.007,3.573,3.07V201.93h-3.573Z" transform="translate(-301.639 -89.412)"/>
      <path id="패스_1167" data-name="패스 1167" d="M185.45,456.91h2.717v13.952H185.45Z" transform="translate(-54.503 -282.797)"/>
      <path id="패스_1168" data-name="패스 1168" d="M279.752,380.232h-2.717V362.815a13.723,13.723,0,0,0-8.314-12.621l-25.485-10.95L232.2,349.991,221.35,339.245l-11.914,5.095-1.073-2.5,12.567-5.366a1.648,1.648,0,0,1,1.82.34l9.455,9.36,9.632-9.374a1.643,1.643,0,0,1,1.82-.34L269.8,347.682a16.738,16.738,0,0,1,4.374,2.758,16.458,16.458,0,0,1,5.6,12.363v17.43Zm-36.014-41.49" transform="translate(-71.615 -192.165)"/>
      <path id="패스_1169" data-name="패스 1169" d="M173.82,368.463l3.71-1.586,1.067,2.5-3.71,1.586Z" transform="translate(-45.762 -215.261)"/>
      <path id="패스_1170" data-name="패스 1170" d="M115.649,414.64h-2.717v-17.4a16.447,16.447,0,0,1,9.985-15.134l1.073,2.5a13.711,13.711,0,0,0-8.341,12.634Z" transform="translate(0 -226.573)"/>
      <path id="패스_1171" data-name="패스 1171" d="M412.23,456.91h2.717v13.952H412.23Z" transform="translate(-224.81 -282.797)"/>
      <path id="패스_1172" data-name="패스 1172" d="M284.142,443.174H264.2l5.719-23.122,2.649.652-4.9,19.753h13L275.774,420.7l2.635-.652Z" transform="translate(-113.608 -255.095)"/>
      <path id="패스_1173" data-name="패스 1173" d="M266.084,364.34a1.549,1.549,0,0,1-.869-.258l-10.162-6.589-10.162,6.589a1.541,1.541,0,0,1-1.454.136,1.6,1.6,0,0,1-.951-1.114l-3.722-15.746,2.649-.625,3.356,14.183,9.863-6.4h.856l9.89,6.412,3.5-14.21,2.635.652-3.9,15.759a1.6,1.6,0,0,1-.965,1.1,1.373,1.373,0,0,1-.571.109Zm.611-2.541" transform="translate(-94.495 -200.091)"/>
      <path id="패스_1174" data-name="패스 1174" d="M236.97,185.1a16.339,16.339,0,0,1-7.961-2.079,28.8,28.8,0,0,1-2.8-1.793c-.19-.136-.394-.285-.611-.462-.611-.462-1.209-.965-1.793-1.494-.082-.068-.149-.136-.217-.2-.027-.027-.054-.041-.068-.068a28.867,28.867,0,0,1-5.095-6.358,28.358,28.358,0,0,1-3.885-14.319v-8.138a1.368,1.368,0,0,1,.435-.992,1.338,1.338,0,0,1,1.019-.367c15.283,1.073,22.606-5.04,26.072-10.366a1.338,1.338,0,0,1,1.236-.611c1.386.095,2.771.231,4.1.394a8.953,8.953,0,0,1,2.282.557c.34.122.693.244,1.209.38a11.772,11.772,0,0,1,5.828,4.062,10.9,10.9,0,0,1,2.69,6.575V158.3a28.338,28.338,0,0,1-5.244,16.4,28.5,28.5,0,0,1-5.04,5.421l-.014.014c-.027.027-.068.054-.1.081l-.014.013c-.013.014-.027.014-.041.027l-.013.013c-.027.027-.054.041-.082.068-.163.122-.326.258-.489.38-.408.313-.842.638-1.291.938-.72.489-1.453.951-2.174,1.345a15.95,15.95,0,0,1-7.947,2.106Zm-11.548-8.029c.068.068.136.122.2.19.53.475,1.073.937,1.617,1.358.2.15.38.285.557.408a26.02,26.02,0,0,0,2.541,1.63,13.6,13.6,0,0,0,13.26,0q.978-.55,1.956-1.223c.394-.272.788-.557,1.168-.842.15-.122.3-.231.448-.353a.187.187,0,0,1,.054-.041l.013-.014c.014-.013.041-.027.054-.041.041-.027.081-.068.122-.095a25.157,25.157,0,0,0,4.551-4.9,25.611,25.611,0,0,0,4.728-14.822v-8.477c0-3.084-3.328-7.2-6.48-8.015a11.79,11.79,0,0,1-1.454-.462,6.715,6.715,0,0,0-1.685-.421c-1.046-.122-2.106-.231-3.193-.326a23.9,23.9,0,0,1-8.043,7.214,33.485,33.485,0,0,1-16.465,3.831q-1.039,0-2.119-.041v6.7a25.527,25.527,0,0,0,3.519,12.947,25.829,25.829,0,0,0,4.633,5.787l.013.014Z" transform="translate(-76.294 -43.417)"/>
      <path id="패스_1175" data-name="패스 1175" d="M248.143,109.937a1.329,1.329,0,0,1-.557-.122c-3.967-1.793-4.144-2.486-4.266-2.989a1.334,1.334,0,0,1-.041-.326v-.068c0-3.084-3.328-7.2-6.48-8.015a11.75,11.75,0,0,1-1.454-.462,6.736,6.736,0,0,0-1.685-.421c-1.019-.122-2.092-.231-3.193-.326a23.9,23.9,0,0,1-8.043,7.214c-5.393,3-12.132,4.252-20.025,3.709a35.67,35.67,0,0,1-4.619-.571,1.36,1.36,0,0,1-1.087-1.44,43.018,43.018,0,0,1,2.011-9.17c2.214-6.6,5.733-11.534,10.2-14.251,5.665-3.451,12.8-3.492,21.193-.122,2.092-.842,6.086-.489,9.944,1.7,4.334,2.459,11.317,8.912,9.455,24.454a1.326,1.326,0,0,1-.679,1.019,1.389,1.389,0,0,1-.679.19Zm-2.16-4.021c.231.15.584.353,1.005.584.924-12.594-4.728-17.824-8.287-19.848-3.872-2.2-7.173-1.888-7.689-1.481a1.356,1.356,0,0,1-1.359.177c-7.8-3.26-14.292-3.369-19.319-.313-7.947,4.823-10.216,16.316-10.773,20.093,1.644.244,2.962.313,2.975.313h.041c15.283,1.073,22.606-5.04,26.072-10.366a1.338,1.338,0,0,1,1.236-.611c1.413.109,2.8.244,4.1.394a8.95,8.95,0,0,1,2.283.557c.34.122.693.244,1.209.38a11.772,11.772,0,0,1,5.828,4.062,11.276,11.276,0,0,1,2.676,6.059Z" transform="translate(-62.883)"/>
      <path id="패스_1176" data-name="패스 1176" d="M281.368,274.79a10.431,10.431,0,0,1-2.839-.408,11.892,11.892,0,0,1-4.211-2.187l1.793-2.051-.9,1.019.9-1.033a7.958,7.958,0,0,0,10.311-.027l1.712,2.106a10.432,10.432,0,0,1-6.765,2.581Z" transform="translate(-121.212 -142.625)"/>
      <path id="패스_1177" data-name="패스 1177" d="M250.875,213.06h-4.524a4.911,4.911,0,0,1-4.9-4.9V203.7a1.363,1.363,0,0,1,1.359-1.359h11.616a1.363,1.363,0,0,1,1.359,1.359v4.456a4.911,4.911,0,0,1-4.9,4.9Zm-6.711-8.016v3.1a2.186,2.186,0,0,0,2.187,2.187h4.524a2.186,2.186,0,0,0,2.187-2.187v-3.1Z" transform="translate(-96.524 -91.757)"/>
      <path id="패스_1178" data-name="패스 1178" d="M318.905,213.06h-4.524a4.911,4.911,0,0,1-4.9-4.9V203.7a1.363,1.363,0,0,1,1.359-1.359h11.616a1.363,1.363,0,0,1,1.359,1.359v4.456a4.911,4.911,0,0,1-4.9,4.9Zm-6.711-8.016v3.1a2.186,2.186,0,0,0,2.187,2.187h4.524a2.186,2.186,0,0,0,2.187-2.187v-3.1Z" transform="translate(-147.62 -91.757)"/>
      <path id="패스_1179" data-name="패스 1179" d="M293.67,211.8h5.285v2.717H293.67Z" transform="translate(-135.755 -98.867)"/>
      <path id="패스_1180" data-name="패스 1180" d="M361.7,211.8h6.956v2.717H361.7Z" transform="translate(-186.851 -98.867)"/>
      <path id="패스_1181" data-name="패스 1181" d="M220.01,211.8h6.7v2.717h-6.7Z" transform="translate(-80.427 -98.867)"/>
      <path id="패스_1182" data-name="패스 1182" d="M287.839,390.393h-7.771l-2.853-8.083,6.317-4.089h.856l6.317,4.089Zm-5.855-2.717h3.926l1.508-4.252-3.464-2.255-3.464,2.255Z" transform="translate(-123.389 -223.749)"/>
    </g>
  </g>
</svg>
