<svg xmlns="http://www.w3.org/2000/svg" width="140" height="130" viewBox="0 0 140 130">
  <g id="ico_04_contents8" transform="translate(-1388 -1859)">
    <rect id="사각형_124" data-name="사각형 124" width="140" height="130" transform="translate(1388 1859)" fill="none"/>
    <g id="ic_08" transform="translate(1286.169 1815.893)">
      <path id="패스_1223" data-name="패스 1223" d="M123.285,299.211a45.28,45.28,0,0,1-2.156-5.73l2.606-.791a44.375,44.375,0,0,0,2.033,5.4Z" transform="translate(-6.228 -183.007)"/>
      <path id="패스_1224" data-name="패스 1224" d="M160.5,144.366c-.805,0-1.61-.014-2.415-.055a47.658,47.658,0,0,1-29.8-12.443c-.491-.45-.982-.914-1.514-1.446a47.985,47.985,0,0,1-6.685-8.363l2.306-1.446a44.8,44.8,0,0,0,6.3,7.886c.5.491.969.942,1.419,1.364a44.912,44.912,0,0,0,75.242-33.534v-.123A44.718,44.718,0,0,0,192.218,64.99l-.491-.491c-.1-.1-.191-.177-.273-.259l-.014-.014a45.167,45.167,0,0,0-62.731.75,44.636,44.636,0,0,0-12.756,37.738l-2.7.368A48.086,48.086,0,0,1,115.2,81.841,47.633,47.633,0,0,1,193.3,62.249l.013.014c.1.1.191.177.287.273.177.164.355.341.532.518a47.506,47.506,0,0,1,13.957,33.126V96.3a47.449,47.449,0,0,1-13.943,34.108A47.531,47.531,0,0,1,160.5,144.367Z" transform="translate(0 0)"/>
      <path id="패스_1225" data-name="패스 1225" d="M431,369.165l1.929-1.929,8.259,8.257-1.929,1.929Z" transform="translate(-239.105 -239.023)"/>
      <path id="패스_1226" data-name="패스 1226" d="M469.68,414.39a8.423,8.423,0,0,1-5.989-2.483l-20.615-20.629a1.515,1.515,0,0,1,0-2.128l9.85-9.85a1.507,1.507,0,0,1,2.128,0l20.629,20.615a8.486,8.486,0,0,1-6,14.476Zm-23.808-24.162,19.756,19.756a5.74,5.74,0,1,0,8.118-8.118L453.99,382.11Z" transform="translate(-247.954 -247.842)"/>
      <path id="패스_1227" data-name="패스 1227" d="M234.088,169.227H184.918V140.192H179.6a1.438,1.438,0,0,1-.928-2.538L209.5,111.118l30.848,26.537a1.445,1.445,0,0,1-.941,2.538h-5.321ZM187.645,166.5h43.713V137.464h4.584L209.5,114.72l-26.44,22.743h4.57V166.5Z" transform="translate(-49.031 -46.54)" fill="#f8ad1c"/>
      <path id="패스_1228" data-name="패스 1228" d="M285.16,269.339H266.6V246.486a1.98,1.98,0,0,1,1.978-1.978h14.6a1.98,1.98,0,0,1,1.978,1.978Zm-15.826-2.729h13.111V247.237H269.333Z" transform="translate(-115.575 -146.838)" fill="#f8ad1c"/>
      <path id="패스_1229" data-name="패스 1229" d="M364.908,152.967l-9.168-7.886v-8.363h9.155v16.249Zm-6.439-9.141,3.711,3.193v-7.572h-3.711Z" transform="translate(-182.545 -65.83)" fill="#f8ad1c"/>
      <path id="패스_1230" data-name="패스 1230" d="M163.233,407.94H123.217v-23.3h-4a1.447,1.447,0,0,1-1.351-.941,1.425,1.425,0,0,1,.423-1.569l14.666-12.606.887.819a44.889,44.889,0,0,0,28.091,11.733l1.3.068Zm-37.287-2.729H160.5V384.706a47.77,47.77,0,0,1-27.6-11.556l-10.178,8.759h3.22Z" transform="translate(-3.718 -240.833)"/>
      <path id="패스_1231" data-name="패스 1231" d="M204.228,461.953H188.784V443.466a1.98,1.98,0,0,1,1.978-1.978H202.25a1.961,1.961,0,0,1,1.405.587,2,2,0,0,1,.573,1.405Zm-12.716-2.729H201.5V444.217h-9.987Z" transform="translate(-57.083 -294.846)"/>
      <path id="패스_1232" data-name="패스 1232" d="M459.887,101.566H439.422v-1.46A44.6,44.6,0,0,0,426.27,68.892l-.491-.491L424.7,67.364l15.185-13.057,24.94,21.461a1.452,1.452,0,0,1,.409,1.583,1.43,1.43,0,0,1-1.337.928h-4v23.289Zm-17.763-2.729h15.035V75.521h3.22L439.872,57.894l-11.147,9.591a47.29,47.29,0,0,1,13.4,31.352Z" transform="translate(-234.491 -3.902)"/>
      <path id="패스_1233" data-name="패스 1233" d="M478.718,182.174h-8.172v-1.46a44.841,44.841,0,0,0-3.588-17.109l-.8-1.9h10.587a1.994,1.994,0,0,1,1.992,1.992v18.473Zm-5.484-2.729h2.742V164.424H470.2A47.045,47.045,0,0,1,473.233,179.445Z" transform="translate(-265.601 -84.612)"/>
    </g>
  </g>
</svg>
