<svg xmlns="http://www.w3.org/2000/svg" width="140" height="130" viewBox="0 0 140 130">
  <g id="ico_04_contents5" transform="translate(-423 -1869)">
    <g id="ic_05" transform="translate(323.501 1801.75)">
      <path id="패스_1154" data-name="패스 1154" d="M108.5,292.63h2.785v4.8H108.5Z" transform="translate(-0.001 -156.648)"/>
      <path id="패스_1155" data-name="패스 1155" d="M221.527,183.249H125.434c-5.027,0-9.3-1.41-12.381-4.092a13.182,13.182,0,0,1-4.554-10.1V146.995h2.785V169.06c0,6.815,5.682,11.4,14.149,11.4h89.187a9.965,9.965,0,0,1-3.064-7.206V86.1a1.059,1.059,0,0,0-1.058-1.061H112.343a1.059,1.059,0,0,0-1.058,1.061V129.76H108.5V86.1a3.857,3.857,0,0,1,3.844-3.855h98.141a3.857,3.857,0,0,1,3.844,3.855V173.25a7.2,7.2,0,0,0,7.186,7.206v2.793Z" transform="translate(0 0)"/>
      <path id="패스_1156" data-name="패스 1156" d="M523.156,337.86a9.979,9.979,0,0,1-9.971-9.971V290.064h16.1a3.851,3.851,0,0,1,3.844,3.844V327.89a9.979,9.979,0,0,1-9.971,9.971Zm-7.186-45.011v35.039a7.186,7.186,0,0,0,14.372,0V293.906a1.058,1.058,0,0,0-1.058-1.058Z" transform="translate(-301.628 -154.611)"/>
      <path id="패스_1157" data-name="패스 1157" d="M163.19,352.79h77.989v2.785H163.19Z" transform="translate(-40.763 -201.447)"/>
      <path id="패스_1158" data-name="패스 1158" d="M392.994,173.245H366.95v-14h26.044Zm-23.258-2.785h20.472v-8.426H369.736Z" transform="translate(-192.634 -57.327)"/>
      <path id="패스_1159" data-name="패스 1159" d="M366.95,241.83h26.044v2.785H366.95Z" transform="translate(-192.634 -118.825)"/>
      <path id="패스_1160" data-name="패스 1160" d="M366.95,278.69h17.687v2.785H366.95Z" transform="translate(-192.634 -146.271)"/>
      <path id="패스_1161" data-name="패스 1161" d="M163.19,404.3h59.886v2.785H163.19Z" transform="translate(-40.763 -239.756)"/>
      <path id="패스_1162" data-name="패스 1162" d="M202.488,180.682H167.811V160.74h-3.189a1.448,1.448,0,0,1-.947-2.549l21.475-18.467L206.625,158.2a1.448,1.448,0,0,1-.933,2.549H202.5v19.929ZM170.6,177.9H199.7V157.954h2.368L185.152,143.4l-16.921,14.553H170.6Zm34.2-17.589-39.3-.014" transform="translate(-40.747 -42.838)" fill="#f8ad1c"/>
      <path id="패스_1163" data-name="패스 1163" d="M236.294,247.938H222.632V231.867a1.911,1.911,0,0,1,1.908-1.908h9.86a1.9,1.9,0,0,1,1.894,1.908Zm-10.877-2.785h8.091V232.758h-8.091Z" transform="translate(-85.068 -109.966)" fill="#f8ad1c"/>
    </g>
    <rect id="사각형_121" data-name="사각형 121" width="140" height="130" transform="translate(423 1869)" fill="none"/>
  </g>
</svg>
