<svg xmlns="http://www.w3.org/2000/svg" width="140" height="130" viewBox="0 0 140 130">
  <g id="ico_04_contents7" transform="translate(-1053 -1864)">
    <g id="ic_07" transform="translate(951.07 1827.887)">
      <path id="패스_1183" data-name="패스 1183" d="M386.53,365.434H320.19V315h30.518v12.506h35.82Zm-63.621-2.719h60.9V330.226h-35.82V317.719H322.909Z" transform="translate(-155.6 -204.321)"/>
      <path id="패스_1184" data-name="패스 1184" d="M369.216,428.115H358.477V412.89h10.739ZM361.2,425.4h5.3v-9.788h-5.3Z" transform="translate(-184.43 -277.877)"/>
      <path id="패스_1185" data-name="패스 1185" d="M369.216,330.225H358.477V315h10.739Zm-8.021-2.719h5.3v-9.788h-5.3Z" transform="translate(-184.43 -204.571)"/>
      <path id="패스_1186" data-name="패스 1186" d="M442.766,428.115H432.027V412.89h10.739Zm-8.021-2.719h5.3v-9.788h-5.3Z" transform="translate(-239.673 -277.877)"/>
      <path id="패스_1187" data-name="패스 1187" d="M516.326,428.115H505.587V412.89h10.739Zm-8.021-2.719h5.3v-9.788h-5.3Z" transform="translate(-294.912 -277.877)"/>
      <path id="패스_1188" data-name="패스 1188" d="M358.48,271.25H361.2v12.235H358.48Z" transform="translate(-184.438 -171.785)"/>
      <path id="패스_1189" data-name="패스 1189" d="M390.74,287.66h2.719v8.156H390.74Z" transform="translate(-208.669 -184.103)"/>
      <path id="패스_1190" data-name="패스 1190" d="M464.3,341.25h2.719v7.341H464.3Z" transform="translate(-263.922 -224.287)"/>
      <path id="패스_1191" data-name="패스 1191" d="M505.59,324.84h2.719v11.419H505.59Z" transform="translate(-294.914 -211.966)"/>
      <path id="패스_1192" data-name="패스 1192" d="M537.85,341.25h2.719v7.341H537.85Z" transform="translate(-319.155 -224.287)"/>
      <path id="패스_1193" data-name="패스 1193" d="M212.3,60.057H195.4l10.631-17.006a1.978,1.978,0,0,1,1.686-.938H212.3Zm-11.99-2.719h9.271V44.832h-1.455Z" transform="translate(-61.944)"/>
      <path id="패스_1194" data-name="패스 1194" d="M215.588,226.2h-15.81V141.1h15.81ZM202.5,223.479h10.372V143.817H202.5Z" transform="translate(-65.23 -73.648)"/>
      <path id="패스_1195" data-name="패스 1195" d="M199.151,483.782H167.07V476.55a4.061,4.061,0,0,1,4.051-4.051h23.993a4.061,4.061,0,0,1,4.051,4.051v7.232Zm-29.377-2.719h26.645V476.55a1.334,1.334,0,0,0-1.332-1.332h-23.98a1.334,1.334,0,0,0-1.332,1.332Z" transform="translate(-40.682 -322.669)"/>
      <path id="패스_1196" data-name="패스 1196" d="M351.91,141.09h5.438v2.719H351.91Z" transform="translate(-179.501 -74.218)"/>
      <path id="패스_1197" data-name="패스 1197" d="M128.563,115.913h-13.73a1.909,1.909,0,0,1-1.9-1.9V88.861a1.909,1.909,0,0,1,1.9-1.9h13.744a1.909,1.909,0,0,1,1.9,1.9V114.01a1.929,1.929,0,0,1-1.917,1.9Zm-12.914-2.719h12.1V89.676h-12.1Z" transform="translate(0 -33.698)"/>
      <path id="패스_1198" data-name="패스 1198" d="M256.68,44.9l.589-2.654,68.515,15.223-.589,2.654Z" transform="translate(-107.877 -0.1)"/>
      <path id="패스_1199" data-name="패스 1199" d="M200.61,412.657,213.7,392.03l2.3,1.456-13.086,20.627Z" transform="translate(-65.855 -262.203)"/>
      <path id="패스_1200" data-name="패스 1200" d="M200.61,393.557l2.3-1.456,13.081,20.616-2.3,1.456Z" transform="translate(-65.855 -262.256)"/>
      <path id="패스_1201" data-name="패스 1201" d="M200.61,330.058l13.079-20.616,2.3,1.456-13.079,20.616Z" transform="translate(-65.855 -200.371)"/>
      <path id="패스_1202" data-name="패스 1202" d="M200.59,310.9l2.3-1.456,13.081,20.613-2.3,1.456Z" transform="translate(-65.84 -200.37)"/>
      <path id="패스_1203" data-name="패스 1203" d="M200.64,246.908l13.079-20.616,2.3,1.456-13.079,20.616Z" transform="translate(-65.878 -138.048)"/>
      <path id="패스_1204" data-name="패스 1204" d="M200.61,227.737l2.3-1.456L215.987,246.9l-2.3,1.456Z" transform="translate(-65.855 -138.039)"/>
      <path id="패스_1205" data-name="패스 1205" d="M200.65,164.257l13.086-20.627,2.3,1.456-13.086,20.627Z" transform="translate(-65.885 -76.09)"/>
      <path id="패스_1206" data-name="패스 1206" d="M200.61,145.1l2.3-1.456,13.081,20.616-2.3,1.456Z" transform="translate(-65.855 -76.098)"/>
      <path id="패스_1207" data-name="패스 1207" d="M508.894,252.592H491.086a1.909,1.909,0,0,1-1.9-1.9v-7.613a1.909,1.909,0,0,1,1.9-1.9h17.822a1.909,1.909,0,0,1,1.9,1.9v7.613a1.929,1.929,0,0,1-1.917,1.9ZM491.9,249.873h16.177v-5.981H491.9Z" transform="translate(-282.585 -149.239)" fill="#f8ad1c"/>
      <path id="패스_1208" data-name="패스 1208" d="M517.722,224.166H502.959l7.381-9.244Zm-9.108-2.719h3.466l-1.74-2.175Z" transform="translate(-292.937 -129.564)" fill="#f8ad1c"/>
      <path id="패스_1209" data-name="패스 1209" d="M527.19,146.56h2.719v19.167H527.19Z" transform="translate(-311.145 -78.292)" fill="#f8ad1c"/>
      <path id="패스_1210" data-name="패스 1210" d="M271.922,115.457h-42.91v-2.719H269.2v-1.047l-7.269-5.614H175.268v6.661h35.395v2.719H172.547v-12.1h90.311l8.291,6.4a1.982,1.982,0,0,1,.776,1.577Z" transform="translate(-44.798 -46.021)"/>
    </g>
    <rect id="사각형_123" data-name="사각형 123" width="140" height="130" transform="translate(1053 1864)" fill="none"/>
  </g>
</svg>
