<svg xmlns="http://www.w3.org/2000/svg" width="140" height="130" viewBox="0 0 140 130">
  <g id="ico_04_contents3" transform="translate(-1049 -1263)">
    <g id="ic_03" transform="translate(949.27 1215.576)">
      <path id="패스_1117" data-name="패스 1117" d="M159.277,268.287H131.31V191.41h27.967v2.7H134.01v71.474h25.266Z" transform="translate(-14.743 -100.863)"/>
      <path id="패스_1118" data-name="패스 1118" d="M238.77,346.99h2.7v4.08h-2.7Z" transform="translate(-95.854 -218.012)"/>
      <path id="패스_1119" data-name="패스 1119" d="M293.624,209.834H238.77V181.589h2.7v25.541h49.451V116.453H241.472v49.081h-2.7V113.75h54.854Z" transform="translate(-96.019 -42.41)"/>
      <path id="패스_1120" data-name="패스 1120" d="M316.857,426.815H284.7V403.4a1.447,1.447,0,0,1,1.446-1.446h29.279a1.447,1.447,0,0,1,1.445,1.446v23.414Zm-29.454-2.7h26.751V404.657H287.4Z" transform="translate(-130.602 -259.391)" fill="#f8ad1c"/>
      <path id="패스_1121" data-name="패스 1121" d="M378.213,331.669H366.188v-12.3h12.025Zm-9.322-2.7h6.62v-6.891h-6.62Z" transform="translate(-192.028 -197.219)"/>
      <path id="패스_1122" data-name="패스 1122" d="M296.733,331.669H284.708v-12.3h12.025Zm-9.322-2.7h6.62v-6.891h-6.62Z" transform="translate(-130.539 -197.219)"/>
      <path id="패스_1123" data-name="패스 1123" d="M378.213,251.279H366.188v-12.3h12.025Zm-9.322-2.7h6.62v-6.891h-6.62Z" transform="translate(-192.028 -136.695)"/>
      <path id="패스_1124" data-name="패스 1124" d="M296.733,251.279H284.708v-12.3h12.025Zm-9.322-2.7h6.62v-6.891h-6.62Z" transform="translate(-130.539 -136.695)"/>
      <path id="패스_1125" data-name="패스 1125" d="M378.213,170.889H366.188v-12.3h12.025Zm-9.322-2.7h6.62V161.3h-6.62Z" transform="translate(-192.028 -76.17)"/>
      <path id="패스_1126" data-name="패스 1126" d="M497.153,414.249H485.128v-12.3h12.025Zm-9.322-2.7h6.62v-6.891h-6.62Z" transform="translate(-281.88 -259.39)"/>
      <path id="패스_1127" data-name="패스 1127" d="M497.153,332.759H485.128v-12.3h12.025Zm-9.322-2.7h6.62v-6.891h-6.62Z" transform="translate(-281.88 -198.04)"/>
      <path id="패스_1128" data-name="패스 1128" d="M497.153,251.279H485.128v-12.3h12.025Zm-9.322-2.7h6.62v-6.891h-6.62Z" transform="translate(-281.88 -136.695)"/>
      <path id="패스_1129" data-name="패스 1129" d="M178.333,414.249H166.308v-12.3h12.025Zm-9.322-2.7h6.62v-6.891h-6.62Z" transform="translate(-41.094 -259.39)"/>
      <path id="패스_1130" data-name="패스 1130" d="M178.333,332.759H166.308v-12.3h12.025Zm-9.322-2.7h6.62v-6.891h-6.62Z" transform="translate(-41.094 -198.04)"/>
      <path id="패스_1131" data-name="패스 1131" d="M178.333,251.279H166.308v-12.3h12.025Zm-9.322-2.7h6.62v-6.891h-6.62Z" transform="translate(-41.094 -136.695)"/>
      <path id="패스_1132" data-name="패스 1132" d="M296.733,170.889H284.708v-12.3h12.025Zm-9.322-2.7h6.62V161.3h-6.62Z" transform="translate(-130.539 -76.17)"/>
      <path id="패스_1133" data-name="패스 1133" d="M344.31,407.42h2.7v22.158h-2.7Z" transform="translate(-175.485 -263.506)" fill="#f8ad1c"/>
      <path id="패스_1134" data-name="패스 1134" d="M282.379,74.043H217.99l6.853-16.619h50.671ZM222,71.34h56.374l-4.636-11.214H226.619Z" transform="translate(-80.008 0)"/>
      <path id="패스_1135" data-name="패스 1135" d="M479.448,268.287H450.13V191.41h29.318Zm-26.615-2.7h23.914V194.111H452.833Z" transform="translate(-255.528 -100.863)"/>
      <path id="패스_1136" data-name="패스 1136" d="M484.258,158.281H450.13V143.824h28.481Zm-31.426-2.7h27.48l-3.54-9.052H452.832Z" transform="translate(-255.528 -65.05)"/>
      <path id="패스_1137" data-name="패스 1137" d="M145.886,158.281H111.73l5.81-14.457h28.345Zm-30.156-2.7h27.453v-9.052h-23.82Z" transform="translate(0 -65.05)"/>
      <path id="패스_1138" data-name="패스 1138" d="M114.35,491.64H230.083v2.7H114.35Z" transform="translate(-1.973 -326.919)"/>
    </g>
    <rect id="사각형_119" data-name="사각형 119" width="140" height="130" transform="translate(1049 1263)" fill="none"/>
  </g>
</svg>
