<svg xmlns="http://www.w3.org/2000/svg" width="140" height="130" viewBox="0 0 140 130">
  <g id="ico_04_contents4" transform="translate(-1349 -1263)">
    <g id="ic_03" transform="translate(1247.62 1225.964)">
      <path id="패스_1139" data-name="패스 1139" d="M529.21,459.43h6.9v2.739h-6.9Z" transform="translate(-312.443 -312.801)"/>
      <path id="패스_1140" data-name="패스 1140" d="M318.83,459.43h6.889v2.739H318.83Z" transform="translate(-154.749 -312.801)"/>
      <path id="패스_1141" data-name="패스 1141" d="M403.241,219.268H390.025l-.4-.794-6-12.819a2.01,2.01,0,0,1-.027-1.616,1.964,1.964,0,0,1,1.192-1.1l3.451-1.137a10.1,10.1,0,0,1,8.683,1.137,7.39,7.39,0,0,0,5.916.959l5.136-1.356a1.9,1.9,0,0,1,1.26.1,2.052,2.052,0,0,1,.9.767,1.98,1.98,0,0,1,.137,1.835l-5.807,13.216-.4.781Zm-11.5-2.739H402.35l4.794-10.9-3.588.945a10.139,10.139,0,0,1-8.108-1.315,7.427,7.427,0,0,0-4.04-1.205,7.288,7.288,0,0,0-2.3.37l-2.63.863Z" transform="translate(-203.182 -118.899)"/>
      <path id="패스_1142" data-name="패스 1142" d="M441.09,266.121l2.349-1.41,4.862,8.1-2.349,1.41Z" transform="translate(-246.391 -166.509)"/>
      <path id="패스_1143" data-name="패스 1143" d="M405.66,272.868l4.862-8.1,2.349,1.41-4.862,8.1Z" transform="translate(-219.834 -166.55)"/>
      <path id="패스_1144" data-name="패스 1144" d="M432.3,450.84h2.739v5.191H432.3Z" transform="translate(-239.802 -306.363)" fill="#f8ad1c"/>
      <path id="패스_1145" data-name="패스 1145" d="M432.3,334.09h2.739v5.081H432.3Z" transform="translate(-239.802 -218.605)" fill="#f8ad1c"/>
      <path id="패스_1146" data-name="패스 1146" d="M410.6,375.862h-4.355a7.039,7.039,0,0,1-7.135-6.944h2.739a4.311,4.311,0,0,0,4.4,4.2H410.6a4.788,4.788,0,0,0,4.889-4.67,4.573,4.573,0,0,0-1.411-3.287,5,5,0,0,0-3.479-1.383h-4.355a7.534,7.534,0,0,1-7.628-7.409,7.252,7.252,0,0,1,2.246-5.259,7.731,7.731,0,0,1,5.382-2.15H410.6a7.039,7.039,0,0,1,7.135,6.944H415a4.311,4.311,0,0,0-4.4-4.2h-4.355a5,5,0,0,0-3.479,1.383,4.52,4.52,0,0,0-1.411,3.287,4.788,4.788,0,0,0,4.889,4.67H410.6a7.732,7.732,0,0,1,5.382,2.15,7.253,7.253,0,0,1,2.246,5.259,7.534,7.534,0,0,1-7.628,7.409Z" transform="translate(-214.555 -230)" fill="#f8ad1c"/>
      <path id="패스_1147" data-name="패스 1147" d="M165.326,149.353H125.472v-53.3H113.9a1.512,1.512,0,0,1-1-2.653l58.919-50.363,58.9,50.363a1.5,1.5,0,0,1-.986,2.653H218.164v18.779l-2.506-3.715a26.1,26.1,0,0,0-15.722-10.845H187.8a26.344,26.344,0,0,0-11.97,6.436,25.9,25.9,0,0,0-8.094,16.724Zm-37.114-2.722h34.622l2.178-23.433a28.871,28.871,0,0,1,22.365-25.623l1.041-.245.11.218H199.21l.109-.2,1.055.231a28.909,28.909,0,0,1,15.065,8.818V93.33h11.025l-54.644-46.7-54.632,46.7h11.025Z" transform="translate(0 0)"/>
      <path id="패스_1148" data-name="패스 1148" d="M246.02,169.6l3.25-2.8,1.786,2.076-3.25,2.8Z" transform="translate(-100.173 -92.961)"/>
      <path id="패스_1149" data-name="패스 1149" d="M196.185,262.6H157.578V208.959h-2.369l18.3-15.75,1.78,2.082-14.969,12.887v51.687h35.869Z" transform="translate(-32.104 -113.251)"/>
      <path id="패스_1150" data-name="패스 1150" d="M339.956,145.069h-2.739V129.881L326.424,120.6,293.61,92.354l-16.955,14.6-1.794-2.082,18.749-16.12,48.714,41.907h-2.369Z" transform="translate(-121.791 -34.267)"/>
      <path id="패스_1151" data-name="패스 1151" d="M355.773,325.281H295.128a7.209,7.209,0,0,1-.726-14.38l2.178-23.625a28.983,28.983,0,0,1,22.365-25.789l1.041-.247.11.219h10.682l.109-.205,1.055.233a28.947,28.947,0,0,1,22.365,25.8l2.178,23.611a7.2,7.2,0,0,1,4.369,12.258,7.084,7.084,0,0,1-5.081,2.123Zm-60.645-11.669a4.39,4.39,0,0,0-3.15,1.315,4.455,4.455,0,0,0,3.15,7.615h60.645a4.489,4.489,0,0,0,4.465-4.478,4.465,4.465,0,0,0-4.465-4.465h-1.78l-2.41-26.075a26.236,26.236,0,0,0-20.064-23.337H319.384A26.227,26.227,0,0,0,299.32,287.5l-2.3,24.871-.164,1.205Z" transform="translate(-131.582 -164.245)"/>
      <path id="패스_1152" data-name="패스 1152" d="M289.12,334.788H277.534V291.5a1.987,1.987,0,0,1,1.986-1.986h22.6l-2.492,2.369a26.136,26.136,0,0,0-8.094,16.832Zm-8.847-2.739h6.355l2.177-23.584a28.9,28.9,0,0,1,6.711-16.215H280.273Z" transform="translate(-123.794 -185.435)"/>
      <path id="패스_1153" data-name="패스 1153" d="M470.218,118.254,455,105.161V92.219a1.379,1.379,0,0,1,1.383-1.383h12.449a1.379,1.379,0,0,1,1.383,1.383ZM457.741,103.9l9.738,8.382V93.575h-9.738Z" transform="translate(-256.819 -35.829)"/>
    </g>
    <rect id="사각형_120" data-name="사각형 120" width="140" height="130" transform="translate(1349 1263)" fill="none"/>
  </g>
</svg>
