<svg xmlns="http://www.w3.org/2000/svg" width="140" height="130" viewBox="0 0 140 130">
  <g id="ico_05_contents3" transform="translate(-1700 -1174)">
    <g id="그룹_34" data-name="그룹 34" transform="translate(1278 -81)">
      <rect id="사각형_117" data-name="사각형 117" width="140" height="130" transform="translate(422 1255)" fill="none"/>
      <g id="그룹_57" data-name="그룹 57" transform="translate(356.739 1192.605)">
        <path id="패스_1256" data-name="패스 1256" d="M456,178.389a7.791,7.791,0,0,0,7.781-7.781A7.923,7.923,0,0,0,456,162.826a7.791,7.791,0,0,0-7.781,7.781A7.923,7.923,0,0,0,456,178.389Zm0-12.569a4.788,4.788,0,1,1-4.788,4.788A4.855,4.855,0,0,1,456,165.82Z" transform="translate(-290.381 -62.42)"/>
        <path id="패스_1257" data-name="패스 1257" d="M192.359,178.389a7.791,7.791,0,0,0,7.781-7.781,7.923,7.923,0,0,0-7.781-7.781,7.781,7.781,0,0,0,0,15.563Zm0-12.569a4.788,4.788,0,1,1-4.788,4.788A4.727,4.727,0,0,1,192.359,165.82Z" transform="translate(-87.964 -62.42)"/>
        <path id="패스_1258" data-name="패스 1258" d="M324.843,97.007a7.581,7.581,0,1,0-7.581-7.581A7.578,7.578,0,0,0,324.843,97.007Zm0-12.171a4.589,4.589,0,1,1-4.589,4.589A4.515,4.515,0,0,1,324.843,84.836Z" transform="translate(-189.836)"/>
        <path id="패스_1259" data-name="패스 1259" d="M170.008,210.864h30v-1.58c-.2-4.542-.8-9.281-.8-9.281a7.057,7.057,0,0,0-1.2-3.949,6.328,6.328,0,0,0-3.8-2.962l-5.8-1.975-4.6,8.689h-.8l-4.8-8.689-5.8,1.975a7.153,7.153,0,0,0-3.8,2.962,8.111,8.111,0,0,0-1.2,3.949s-.2,1.975-.4,4.344l-7.4-17.378h17.2a7.98,7.98,0,0,0,6.4,3.357,7.7,7.7,0,1,0,0-15.4,7.292,7.292,0,0,0-2.2.395,8.218,8.218,0,0,0-.8-1.975,6.327,6.327,0,0,0-3.8-2.962l-5.8-1.975-4.6,8.494h-.8l-4.6-8.689-5.8,1.975a4.1,4.1,0,0,0-1.8.987l-2-4.542c-.2-4.344-.6-8.689-.6-8.689a7.55,7.55,0,0,0-1.2-3.949,6.683,6.683,0,0,0-3.6-2.962l-5.6-1.975-4.6,8.492h-.6l-4.6-8.492-5.6,1.975a6.688,6.688,0,0,0-3.6,2.962,7.454,7.454,0,0,0-1.2,3.753s-.4,4.344-.6,8.887l-2,4.542a8.162,8.162,0,0,0-1.8-.987l-5.8-1.975-4.8,8.689h-.8l-4.8-8.689-5.8,1.975a7.151,7.151,0,0,0-3.8,2.962,8.17,8.17,0,0,0-.8,1.975,8.588,8.588,0,0,0-2.2-.395,7.7,7.7,0,1,0,0,15.4,7.982,7.982,0,0,0,6.4-3.357h17.2l-7.4,17.378c-.2-2.567-.4-4.344-.4-4.344a7.055,7.055,0,0,0-1.2-3.949,6.326,6.326,0,0,0-3.8-2.962l-5.8-1.975-4.6,8.884h-.8l-4.8-8.689-5.8,1.975a6.682,6.682,0,0,0-3.6,2.962,8.112,8.112,0,0,0-1.2,3.949s-.6,4.739-.8,9.479v1.58h30.2l-3.8,8.689a3.06,3.06,0,0,0,.4,3.16,3.455,3.455,0,0,0,2.8,1.58h71a3.2,3.2,0,0,0,2.8-1.58,3.591,3.591,0,0,0,.4-3.16Zm-96.8-2.962c.2-3.949.6-7.7.6-7.9a4.894,4.894,0,0,1,.8-2.567,4.013,4.013,0,0,1,2.2-1.777l3.2-.988,4.4,8.1h4.2l4.4-8.1,3.4,1.185a4.879,4.879,0,0,1,2.2,1.777,5.065,5.065,0,0,1,.8,2.765s.4,3.752.6,7.7h-26.8Zm97.4-7.7a4.894,4.894,0,0,1,.8-2.567,4.013,4.013,0,0,1,2.2-1.777l3.4-1.185,4.4,8.1h4.2l4.4-8.1,3.4,1.185a4.879,4.879,0,0,1,2.2,1.777,5.067,5.067,0,0,1,.8,2.765s.4,3.752.6,7.7h-27c.2-4.146.6-7.7.6-7.9Zm12.8-22.315a4.74,4.74,0,1,1-4.8,4.739A4.836,4.836,0,0,1,183.409,177.886Zm-27.6-4.74,3.4-1.185,4.4,8.1h4.2l4.4-8.1,3.4,1.185a4.879,4.879,0,0,1,2.2,1.777,10.011,10.011,0,0,1,.8,1.975,7.367,7.367,0,0,0-2.8,5.925,4.286,4.286,0,0,0,.2,1.58h-17.2l-4.4-10.269c.2-.593.6-.79,1.4-.988Zm-33-15.205a4.2,4.2,0,0,1,.8-2.37,3.169,3.169,0,0,1,2-1.58l3.2-1.185,4.2,7.7h4.2l4.2-7.7,3.2,1.185a5.449,5.449,0,0,1,2,1.58,4.362,4.362,0,0,1,.8,2.567s.4,3.555.6,7.306h-26c.4-3.752.6-7.307.8-7.5Zm-36.2,29.622a4.74,4.74,0,1,1,4.8-4.739A4.836,4.836,0,0,1,86.606,187.562Zm7.6-3.358c0-.395.2-.988.2-1.58a8.006,8.006,0,0,0-2.8-5.925,5.89,5.89,0,0,1,.8-1.975,4.012,4.012,0,0,1,2.2-1.777l3.4-1.185,4.4,8.1h4.2l4.4-8.1,3.4,1.185a3.165,3.165,0,0,1,1.6.988l-4.4,10.071h-17.4Zm76.8,37.126a.7.7,0,0,1-.4.2h-71a.7.7,0,0,1-.4-.2.271.271,0,0,1,0-.395l22.4-52.529h27l22.4,52.529v.4Z" transform="translate(0 -51.646)"/>
      </g>
    </g>
    <g id="패스_1265" data-name="패스 1265" transform="translate(1755 1224.628)" fill="#fff">
      <path d="M 51.62051391601562 58.74120330810547 L -20.41338348388672 58.74120330810547 C -21.77700424194336 58.74120330810547 -23.16460990905762 57.53726196289062 -23.34415626525879 56.27348327636719 L -0.5982038378715515 4.797753810882568 C 0.3578212857246399 3.276257276535034 1.140972375869751 2.361864328384399 1.862348914146423 1.923703551292419 C 2.452049016952515 1.565536856651306 3.044893503189087 1.500003576278687 4.000004291534424 1.500003576278687 L 26.00000381469727 1.500003576278687 C 27.32006454467773 1.500003576278687 28.44489288330078 2.039577960968018 30.55856132507324 4.858587741851807 L 53.71332931518555 56.29772567749023 C 53.6161994934082 57.55583190917969 52.90155029296875 58.74120330810547 51.62051391601562 58.74120330810547 Z" stroke="none"/>
      <path d="M 3.999994277954102 3.000003814697266 C 3.1324462890625 3.000003814697266 2.870553970336914 3.066349029541016 2.641059875488281 3.20574951171875 C 2.301345825195312 3.412082672119141 1.697353363037109 3.97979736328125 0.7290534973144531 5.505321502685547 L -21.74815368652344 56.37283706665039 C -21.49702072143555 56.80976867675781 -20.88602828979492 57.24120330810547 -20.41337966918945 57.24120330810547 L 51.62051391601562 57.24120330810547 C 51.72644805908203 57.24120330810547 51.79898071289062 57.23099136352539 51.91280746459961 57.08936309814453 C 52.02749633789062 56.94667816162109 52.11505508422852 56.74751281738281 52.16780090332031 56.51863479614258 L 29.25966835021973 5.627410888671875 C 27.42365837097168 3.206127166748047 26.66842269897461 3.000003814697266 25.99999237060547 3.000003814697266 L 3.999994277954102 3.000003814697266 M 3.999994277954102 3.814697265625e-06 L 25.99999237060547 3.814697265625e-06 C 28.20914077758789 3.814697265625e-06 29.76740646362305 1.275390625 31.85900688171387 4.093231201171875 L 55.22476959228516 56.00108337402344 C 55.22476959228516 58.26171112060547 53.82964706420898 60.24120330810547 51.62051391601562 60.24120330810547 L -20.41337966918945 60.24120330810547 C -22.62252807617188 60.24120330810547 -24.86371231079102 58.26171112060547 -24.86371231079102 56.00108337402344 L -1.926807403564453 4.093231201171875 C 0.4078330993652344 0.3466835021972656 1.790859222412109 3.814697265625e-06 3.999994277954102 3.814697265625e-06 Z" stroke="none" fill="#f8ad1c"/>
    </g>
  </g>
</svg>
