<svg id="ico_05_contents2" xmlns="http://www.w3.org/2000/svg" width="140" height="130" viewBox="0 0 140 130">
  <rect id="사각형_117" data-name="사각형 117" width="140" height="130" fill="none"/>
  <g id="그룹_56" data-name="그룹 56" transform="translate(11 33)">
    <path id="패스_1254" data-name="패스 1254" d="M185.855,144.756c-7.736,3.047-13.853,9.681-16.191,12.37a1.818,1.818,0,0,1-1.439.538,1.636,1.636,0,0,1-1.259-.538l-14.932-21.512a1.339,1.339,0,0,1-.18-.9,2.7,2.7,0,0,1,1.259-1.613c.54-.358,1.439-.717,2.519-1.255,1.439-.717,3.238-1.434,5.4-2.51l-1.259-2.33c-1.979,1.075-3.778,1.793-5.217,2.51-1.259.538-2.159,1.075-2.879,1.434a5.253,5.253,0,0,0-2.519,3.407v1.075H107.6V134.36a6.554,6.554,0,0,0-2.519-3.407c-.719-.359-1.619-.9-2.878-1.434-1.619-.717-3.6-1.613-6.117-2.868l-1.619,2.33a63.493,63.493,0,0,0,6.3,3.047,15.918,15.918,0,0,1,2.519,1.255,2.166,2.166,0,0,1,1.259,1.613,1.61,1.61,0,0,1-.18.9L89.427,157.306a1.4,1.4,0,0,1-1.259.538,1.817,1.817,0,0,1-1.439-.538c-2.338-2.689-8.455-9.322-16.191-12.37L70,147.266c7.376,3.047,13.493,9.681,15.112,11.653a4.185,4.185,0,0,0,3.418,1.613h.18a3.848,3.848,0,0,0,3.058-1.434,13.2,13.2,0,0,1,2.878,3.407,5.958,5.958,0,0,0,.54,1.075c0,.18.18.359.18.538a4.835,4.835,0,0,0-1.439,1.255,5.584,5.584,0,0,0,1.259,8.067l.18.18a5.938,5.938,0,0,0,3.418,1.075,2.284,2.284,0,0,0,1.079-.18v.9a5.658,5.658,0,0,0,2.339,3.944,6.711,6.711,0,0,0,3.6,1.255,3.511,3.511,0,0,0,1.439-.18v.538a5.657,5.657,0,0,0,2.338,3.944,6.711,6.711,0,0,0,3.6,1.255,5.278,5.278,0,0,0,1.619-.359,5.443,5.443,0,0,0,2.159,3.765,5.036,5.036,0,0,0,3.238,1.075,5.386,5.386,0,0,0,4.138-1.972,7.35,7.35,0,0,0,3.238.9,2.284,2.284,0,0,0,1.079-.18,6.62,6.62,0,0,0,3.958-2.51,6.321,6.321,0,0,0,1.079-3.407l1.439,1.075a6.374,6.374,0,0,0,3.419,1.075,5.8,5.8,0,0,0,5.038-2.689,6.321,6.321,0,0,0,1.079-3.407l.36.18a6.374,6.374,0,0,0,3.418,1.075,2.284,2.284,0,0,0,1.079-.18,6.62,6.62,0,0,0,3.958-2.51,6.447,6.447,0,0,0,1.079-3.585l.72.538a6.374,6.374,0,0,0,3.418,1.075,5.8,5.8,0,0,0,5.038-2.689,6.1,6.1,0,0,0-1.619-8.605L141.96,151.21H138c-6.477,0-7.376-4.84-7.376-5.379l.537-1.075H117.491l-.18,1.075c-.54,3.227-1.619,5.379-3.238,6.274a4.931,4.931,0,0,1-2.519.717v-8.964l10.434-5.737h28.785l14.212,20.8a4.565,4.565,0,0,0,3.238,1.793h.18a4.439,4.439,0,0,0,3.418-1.614c1.619-1.972,7.736-8.605,15.112-11.653ZM96.983,171.468l-.18-.18a3.411,3.411,0,0,1-1.259-1.972,2.709,2.709,0,0,1,.54-2.33,3.152,3.152,0,0,1,2.519-1.255,3.049,3.049,0,0,1,1.8.538l.18.18a3.411,3.411,0,0,1,1.259,1.972,4.939,4.939,0,0,1-.18,1.613l-.719.9v.18a3.262,3.262,0,0,1-3.958.358Zm6.836,5.737a3.177,3.177,0,0,1-.719-4.482c.18-.18.36-.359.36-.538.18-.18.36-.538.54-.717l1.26-1.613a3.03,3.03,0,0,1,2.7-1.255,2.713,2.713,0,0,1,1.979.717,3.177,3.177,0,0,1,.719,4.482l-1.979,2.689a3.671,3.671,0,0,1-4.857.718Zm7.556,5.557a3.326,3.326,0,0,1-1.259-2.152,2.576,2.576,0,0,1,.54-2.33l1.979-2.689,1.8-2.51a3.03,3.03,0,0,1,2.7-1.255,2.714,2.714,0,0,1,1.979.717,3.326,3.326,0,0,1,1.259,2.152,2.575,2.575,0,0,1-.54,2.33l-3.778,5.2a3.853,3.853,0,0,1-4.677.538Zm11.514,3.406-.54.717a2.8,2.8,0,0,1-3.778.538,2.615,2.615,0,0,1-.54-3.765l.54-.717a2.568,2.568,0,0,1,2.159-1.075,2.909,2.909,0,0,1,1.619.538,2.613,2.613,0,0,1,.54,3.764Zm-14.212-43.92v12.728l.9.359a7.476,7.476,0,0,0,5.577-.717c2.159-1.255,3.6-3.585,4.317-7.171h9.175c.9,2.689,3.6,6.633,9.894,6.633H141.6l19.429,13.087a3.485,3.485,0,1,1-3.958,5.737l-4.857-3.407L138.36,160l-1.619,2.152,13.853,9.5a3.567,3.567,0,0,1,1.439,2.152,3.1,3.1,0,0,1-.54,2.51,3.581,3.581,0,0,1-2.159,1.434,3.712,3.712,0,0,1-2.7-.538l-4.138-2.689-.36-.359L135.3,169.5l-1.258,2.51,7.2,4.84a3.316,3.316,0,0,1,.54,4.482,3.48,3.48,0,0,1-4.857.9l-9-6.274-1.619,2.152,3.238,2.33v.18a3.567,3.567,0,0,1,1.439,2.152,3.1,3.1,0,0,1-.54,2.51,3.581,3.581,0,0,1-2.159,1.434,3.127,3.127,0,0,1-2.519-.538,5.346,5.346,0,0,0-1.8-6.1,4.858,4.858,0,0,0-2.7-.9l.54-.717a6.459,6.459,0,0,0,1.079-4.482,5.658,5.658,0,0,0-2.338-3.944,6.71,6.71,0,0,0-3.6-1.255,5.509,5.509,0,0,0-3.6,1.255,5.341,5.341,0,0,0-2.159-3.047,6.71,6.71,0,0,0-3.6-1.255,5.552,5.552,0,0,0-3.418,1.075,6.367,6.367,0,0,0-1.979-2.868l-.18-.18a5.808,5.808,0,0,0-4.138-1.075c-.18-.18-.18-.359-.36-.717a8.694,8.694,0,0,1-.54-1.255,15.078,15.078,0,0,0-3.778-4.3l12.955-18.467h10.074Z" transform="translate(-69.998 -126.396)"/>
    <path id="패스_1255" data-name="패스 1255" d="M450.992,139.755l14.165,20.789a4.547,4.547,0,0,0,3.228,1.793h.18a4.631,4.631,0,0,0,3.647-1.311c1.614-1.971,7.887-8.625,15.238-11.672l-1.724-3.928c-7.71,3.046-13.575,9.648-15.906,12.336a1.808,1.808,0,0,1-1.434.538,1.629,1.629,0,0,1-1.255-.538l-13.892-20.514a1.342,1.342,0,0,1-.18-.9,2.694,2.694,0,0,1,1.255-1.613c.538-.358,1.434-.717,2.51-1.255,1.434-.717,2.607-1.256,4.759-2.332l-1.245-3.736c-1.972,1.075-3.8,2.354-5.229,3.071-1.255.538-2.152,1.075-2.869,1.433-1.255.9-3.379,1.919-3.494,3.926l.632,1.222Z" transform="translate(-370.097 -127.819)" fill="#f8ad1c"/>
  </g>
</svg>
