<svg xmlns="http://www.w3.org/2000/svg" width="140" height="130" viewBox="0 0 140 130">
  <g id="ico_05_contents1" transform="translate(-425 -1250)">
    <rect id="사각형_117" data-name="사각형 117" width="140" height="130" transform="translate(425 1250)" fill="none"/>
    <g id="그룹_55" data-name="그룹 55" transform="translate(369.995 1258.277)">
      <path id="패스_1245" data-name="패스 1245" d="M536.95,528.98h2.217v2.375H536.95Z" transform="translate(-373.904 -422.96)"/>
      <path id="패스_1246" data-name="패스 1246" d="M460.745,240.795a4.9,4.9,0,0,0-4.276-.95c-2.375.317-3.959,2.692-3.959,6.017v16.152h2.375V245.862c0-1.9.792-3.484,1.9-3.642a2.739,2.739,0,0,1,2.375.475,4.47,4.47,0,0,1,1.109,3.167v24.387a5.747,5.747,0,0,1-1.742,4.117l-9.818,9.818a5.156,5.156,0,0,0-1.584,3.642v.633H430.341v-6.809A6.869,6.869,0,0,1,432.4,276.9l13.144-12.668a2.921,2.921,0,0,1,1.9-.792,2.622,2.622,0,0,1,1.9.792,2.772,2.772,0,0,1,0,3.959l-6.176,6.017,1.584,1.742,6.176-6.017a5.213,5.213,0,0,0,.159-7.284,5.156,5.156,0,0,0-3.642-1.584,5.018,5.018,0,0,0-3.642,1.425l-13.144,12.668a8.969,8.969,0,0,0-2.692,6.493v6.809h-3.009v9.976h2.375v-7.6h22.8v7.6h2.375V288.46H449.5v-.633a3.333,3.333,0,0,1,.792-2.058l9.818-9.818a8.035,8.035,0,0,0,2.375-5.7V245.862a6.108,6.108,0,0,0-1.742-5.068Z" transform="translate(-282.497 -186.873)"/>
      <path id="패스_1247" data-name="패스 1247" d="M150.98,528.98H153.2v2.375H150.98Z" transform="translate(-66.091 -422.96)"/>
      <path id="패스_1248" data-name="패스 1248" d="M104.685,281.813a9.24,9.24,0,0,0-2.692-6.493L88.849,262.652a4.656,4.656,0,0,0-3.642-1.425,5.154,5.154,0,0,0-3.642,1.584,5.067,5.067,0,0,0,0,7.284l6.176,6.017,1.584-1.742-6.176-6.017a2.772,2.772,0,0,1,0-3.959,2.921,2.921,0,0,1,1.9-.792,2.622,2.622,0,0,1,1.9.792l13.144,12.668a6.866,6.866,0,0,1,2.058,4.751v6.809H85.524v-.633a4.587,4.587,0,0,0-1.584-3.642l-9.818-9.818a5.75,5.75,0,0,1-1.742-4.117V245.866a3.868,3.868,0,0,1,1.109-3.167,2.661,2.661,0,0,1,2.375-.475c1.109.159,1.9,1.584,1.9,3.642v16.152h2.375V245.866c0-3.167-1.584-5.542-3.959-6.017a4.9,4.9,0,0,0-4.276.95,6.626,6.626,0,0,0-1.9,5.068v24.387a8.148,8.148,0,0,0,2.375,5.7l9.819,9.976a3.01,3.01,0,0,1,.792,2.058v.633H79.981V298.6h2.375V291h22.8v7.6h2.375v-9.976h-3.009v-6.809Z" transform="translate(0 -186.876)"/>
      <path id="패스_1249" data-name="패스 1249" d="M322.457,236.462V235.2H294.745v1.267a2.1,2.1,0,0,1-2.058,2.058H291.42v11.085h1.267a2.1,2.1,0,0,1,2.058,2.058v1.267h27.712v-1.267a2.1,2.1,0,0,1,2.058-2.058h1.267V238.52h-1.267a2.211,2.211,0,0,1-2.058-2.058Zm.792,10.768a4.745,4.745,0,0,0-3.009,3.009H296.963a4.746,4.746,0,0,0-3.009-3.009v-6.651a4.746,4.746,0,0,0,3.009-3.009H320.24a4.745,4.745,0,0,0,3.009,3.009Z" transform="translate(-176.427 -186.825)"/>
      <path id="패스_1250" data-name="패스 1250" d="M225.011,13.441l2.375.317c.159-1.742-.95-3.8-2.217-5.7a9.559,9.559,0,0,1-1.425-2.85,1.894,1.894,0,0,1,1.267.633,7.422,7.422,0,0,0,1.584.792A4.111,4.111,0,0,0,229.6,5.365c.475-.317.633-.475.792-.475a.155.155,0,0,0,.159.159,2.791,2.791,0,0,0,1.425,1.267c2.058.633,3.642-.475,4.751-1.267a3.833,3.833,0,0,1,1.742-.95h.159a4.946,4.946,0,0,1-.633.95l-.317.317a19.082,19.082,0,0,0-3.167,8.235l2.375.317a14.919,14.919,0,0,1,2.692-7.126l.159-.317c.792-.95,1.742-2.375,1.109-3.642-.317-.792-1.267-1.109-2.534-1.109a5.814,5.814,0,0,0-3.167,1.425c-1.109.95-1.742,1.266-2.375.95-.159,0-.317-.317-.475-.475a2.124,2.124,0,0,0-1.109-.95,3.247,3.247,0,0,0-3.167.95c-.475.475-.792.633-1.109.633a1.2,1.2,0,0,1-.633-.317c-.792-.475-2.217-1.425-3.642-.792a2.391,2.391,0,0,0-1.266,1.266c-.318,1.427.632,3.01,1.9,4.91.792,1.425,1.9,3.167,1.742,4.117Z" transform="translate(-121.077)"/>
      <path id="패스_1251" data-name="패스 1251" d="M181.106,141.86v3.167h43.863V117.791H203.117c-.95-3.959-4.117-7.443-7.443-11.243a57.051,57.051,0,0,1-7.126-9.185l-2.058,1.109c1.9,3.484,4.751,6.651,7.284,9.66,3.009,3.326,5.7,6.493,6.809,9.66H181.1v21.537c-10.293-.317-16.311-5.068-16.627-12.985-.317-6.651,3.484-11.56,7.443-16.627,2.692-3.484,5.384-6.967,6.967-11.243l-2.217-.792c-1.425,3.959-4.117,7.284-6.651,10.61-4.117,5.226-8.235,10.61-7.918,18.211.317,9.342,7.443,14.885,19,15.36Zm2.375-21.695h39.114v22.487H183.481Z" transform="translate(-72.095 -75.699)"/>
      <path id="패스_1252" data-name="패스 1252" d="M243.271,78.4h-15.2a1.267,1.267,0,1,0,0,2.533h15.2a1.249,1.249,0,0,0,1.267-1.266A1.165,1.165,0,0,0,243.271,78.4Z" transform="translate(-125.533 -62.582)" fill="#f8ad1c"/>
      <path id="패스_1253" data-name="패스 1253" d="M364.769,258.46a4.434,4.434,0,1,0,4.434,4.434A4.427,4.427,0,0,0,364.769,258.46Zm0,6.493a2.058,2.058,0,1,1,2.058-2.058A2.1,2.1,0,0,1,364.769,264.953Z" transform="translate(-232.867 -205.83)"/>
    </g>
  </g>
</svg>
