<svg xmlns="http://www.w3.org/2000/svg" width="140" height="130" viewBox="0 0 140 130">
  <g id="ico_04_contents6" transform="translate(-753 -1864)">
    <rect id="사각형_122" data-name="사각형 122" width="140" height="130" transform="translate(753 1864)" fill="none"/>
    <g id="ic_06" transform="translate(635.878 1825.779)">
      <path id="패스_1211" data-name="패스 1211" d="M510.464,93.4h-16.34a1.4,1.4,0,0,1-1.391-1.391V75.684A1.373,1.373,0,0,1,493.6,74.4a1.4,1.4,0,0,1,1.516.306l16.34,16.34a1.4,1.4,0,0,1,.306,1.516,1.425,1.425,0,0,1-1.293.834Zm-14.95-2.781H507.1L495.514,79.036Z" transform="translate(-268.91 -23.923)"/>
      <path id="패스_1212" data-name="패스 1212" d="M272.809,187.26h-95.5A2.256,2.256,0,0,1,175.05,185V129.869h2.784v54.6H272.28V92.6L256.743,77.047H177.834v36.3H175.05V76.517a2.256,2.256,0,0,1,2.255-2.257h80.008a1.345,1.345,0,0,1,.975.4l16.358,16.372a1.38,1.38,0,0,1,.4.989v92.99a2.241,2.241,0,0,1-2.241,2.243Z" transform="translate(-32.012 -23.892)"/>
      <path id="패스_1213" data-name="패스 1213" d="M175.05,252.22h2.781v4.089H175.05Z" transform="translate(-32.012 -156.598)"/>
      <path id="패스_1214" data-name="패스 1214" d="M144.429,151.763H134.375a2.261,2.261,0,0,1-2.253-2.253V44.474a2.261,2.261,0,0,1,2.253-2.253h85.707a2.261,2.261,0,0,1,2.253,2.253l-.014,7.273H219.54L219.553,45H134.889V148.984h9.54Z"/>
      <path id="패스_1215" data-name="패스 1215" d="M243.58,338.57h65.069v2.781H243.58Z" transform="translate(-83.115 -220.989)"/>
      <path id="패스_1216" data-name="패스 1216" d="M243.58,390.41h65.069v2.781H243.58Z" transform="translate(-83.115 -259.647)"/>
      <path id="패스_1217" data-name="패스 1217" d="M243.58,442.31h27.688v2.781H243.58Z" transform="translate(-83.115 -298.349)"/>
      <path id="패스_1218" data-name="패스 1218" d="M406.152,437.272a2.346,2.346,0,0,1-1.947-.765c-.737-.918-.32-1.975.042-2.907.473-1.2,1-2.545.125-4.089a2.219,2.219,0,0,0-.139-.223,9.539,9.539,0,0,0-1.627,3.032,29.461,29.461,0,0,0-1.029,3.143l-2.684-.709a33.842,33.842,0,0,1,1.252-3.727c1.21-3.018,2.392-4.436,3.838-4.631.765-.1,1.877.125,2.809,1.738a6.825,6.825,0,0,1,.125,6.286c.1-.014.209-.028.334-.056,1.53-.25,2.072-1.418,2.573-2.8.25-.7.64-1.738,1.766-1.738h.014c1.113.014,1.558,1.071,1.822,1.7.167.4.361.932.654,1.738a30.517,30.517,0,0,0,9.373-6.049l1.975,1.947a33.126,33.126,0,0,1-11.765,7.218,1.33,1.33,0,0,1-1.057-.069,1.4,1.4,0,0,1-.709-.807c-.1-.264-.223-.654-.362-1.057a5.319,5.319,0,0,1-3.852,2.642,8.2,8.2,0,0,1-1.53.181Z" transform="translate(-198.933 -286.468)" fill="#f8ad1c"/>
      <path id="패스_1219" data-name="패스 1219" d="M510.464,93.4h-16.34a1.4,1.4,0,0,1-1.391-1.391V75.684A1.373,1.373,0,0,1,493.6,74.4a1.4,1.4,0,0,1,1.516.306l16.34,16.34a1.4,1.4,0,0,1,.306,1.516,1.425,1.425,0,0,1-1.293.834Zm-14.95-2.781H507.1L495.514,79.036Z" transform="translate(-268.91 -23.923)"/>
      <path id="패스_1220" data-name="패스 1220" d="M280.546,168.225H243.081V146.545h-3.6a1.446,1.446,0,0,1-.946-2.545L261.8,123.974,285.065,144a1.446,1.446,0,0,1-.946,2.545h-3.574Zm-34.683-2.781h31.9V143.763h2.781l-18.732-16.1-18.732,16.1h2.781Z" transform="translate(-78.974 -60.964)"/>
      <path id="패스_1221" data-name="패스 1221" d="M317.46,241.468h-14.6V224.14a1.953,1.953,0,0,1,1.947-1.947h10.722a1.953,1.953,0,0,1,1.947,1.947v17.328Zm-11.821-2.781h9.039V224.96h-9.039Z" transform="translate(-127.319 -134.206)"/>
      <path id="패스_1222" data-name="패스 1222" d="M375.754,156.533,368.161,150v-6.773h6.787l.362.376.445.362Zm-4.812-7.8,2.03,1.752v-4.478h-2.03Z" transform="translate(-176.016 -75.319)"/>
    </g>
  </g>
</svg>
